<svg height="128" viewBox="0 0 192 192" width="128" fill="#a88b2c" xmlns="http://www.w3.org/2000/svg"><g id="_16-broom" data-name="16-broom"><g id="Glyph"><path d="m189.657 13.657-11.314-11.314-90.343 90.343-2.343-2.343-11.314 11.314 2.343 2.343-2.946 2.946a32.062 32.062 0 0 0 -38.882 4.941l-33.941 33.941 11.313 11.315 33.941-33.943a15.994 15.994 0 0 1 15.44-4.126l-7.268 7.268-36.456 36.458 11.313 11.313 36.456-36.456 7.268-7.268a16 16 0 0 1 -4.124 15.439l-33.942 33.942 11.313 11.314 33.942-33.942a32.059 32.059 0 0 0 4.941-38.882l2.946-2.946 2.343 2.343 11.314-11.314-2.343-2.343z"/><path d="m79.261 25.609a14.245 14.245 0 0 1 14.13 14.326 2 2 0 1 0 4 0 14.245 14.245 0 0 1 14.131-14.326 2 2 0 0 0 0-4 14.246 14.246 0 0 1 -14.131-14.326 2 2 0 0 0 -4 0 14.246 14.246 0 0 1 -14.13 14.326 2 2 0 0 0 0 4z"/><path d="m176.522 101.609a14.246 14.246 0 0 1 -14.131-14.326 2 2 0 1 0 -4 0 14.246 14.246 0 0 1 -14.13 14.326 2 2 0 0 0 0 4 14.245 14.245 0 0 1 14.13 14.326 2 2 0 1 0 4 0 14.245 14.245 0 0 1 14.131-14.326 2 2 0 0 0 0-4z"/><path d="m24.261 73.609a14.245 14.245 0 0 1 14.13 14.326 2 2 0 0 0 4 0 14.245 14.245 0 0 1 14.131-14.326 2 2 0 1 0 0-4 14.246 14.246 0 0 1 -14.131-14.326 2 2 0 0 0 -4 0 14.246 14.246 0 0 1 -14.13 14.326 2 2 0 1 0 0 4z"/></g></g></svg>