<?xml version="1.0"?>
<svg xmlns="http://www.w3.org/2000/svg" viewBox="0 0 192 192" width="128" height="128"><g id="_04-hat" fill="#a88b2c" data-name="04-hat"><g id="Glyph"><path d="M155.54,121.945c-1.72-.688-3.511-1.336-5.345-1.957l8.985,26.952a16.019,16.019,0,0,1-10.12,20.239C147.982,167.538,122.319,176,96,176s-51.982-8.462-53.063-8.822a16,16,0,0,1-9.248-22.333L46.92,118.383c-3.675,1.065-7.179,2.25-10.46,3.562C18.107,129.286,8,139.959,8,152s10.107,22.714,28.46,30.055C52.493,188.468,73.638,192,96,192s43.507-3.532,59.54-9.945C173.893,174.714,184,164.041,184,152S173.893,129.286,155.54,121.945Z"/><path d="M48.87,21.087A14.246,14.246,0,0,1,63,35.413a2,2,0,0,0,4,0A14.246,14.246,0,0,1,81.13,21.087a2,2,0,0,0,0-4A14.246,14.246,0,0,1,67,2.761a2,2,0,1,0-4,0A14.246,14.246,0,0,1,48.87,17.087a2,2,0,0,0,0,4Z"/><path d="M190.13,78.087A14.246,14.246,0,0,1,176,63.761a2,2,0,1,0-4,0,14.246,14.246,0,0,1-14.13,14.326,2,2,0,0,0,0,4A14.246,14.246,0,0,1,172,96.413a2,2,0,1,0,4,0,14.246,14.246,0,0,1,14.13-14.326,2,2,0,0,0,0-4Z"/><path d="M13.87,84.087A14.246,14.246,0,0,1,28,98.413a2,2,0,1,0,4,0A14.246,14.246,0,0,1,46.13,84.087a2,2,0,1,0,0-4A14.246,14.246,0,0,1,32,65.761a2,2,0,0,0-4,0A14.246,14.246,0,0,1,13.87,80.087a2,2,0,0,0,0,4Z"/><path d="M80,72V84.687L66.343,98.343a7.986,7.986,0,0,0-1.5,2.079L54.056,122c11.81,3.772,26.286,6,41.944,6,17.487,0,33.5-2.776,45.972-7.384l-5.334-16,6.517-13.036a8,8,0,0,0-1.5-9.235L128,68.687V58.667L150.4,28.8a8,8,0,0,0-9.978-11.955l-48,24A8,8,0,0,0,88.41,45.47l-8,24A8.027,8.027,0,0,0,80,72Z"/><path d="M50.634,128.844l-9.789,19.578a8,8,0,0,0,4.625,11.167C46.5,159.933,70.989,168,96,168s49.5-8.067,50.53-8.411a8,8,0,0,0,5.06-10.119l-7.252-21.755C131.56,132.863,114.605,136,96,136,78.8,136,63.017,133.316,50.634,128.844Z"/></g></g></svg>
