<?xml version="1.0" encoding="UTF-8"?>
<svg xmlns="http://www.w3.org/2000/svg" viewBox="0 0 74 74" width="512" height="512" fill="white"><g id="Numbers"><text transform="translate(30.995 -17.877)" font-size="18" fill="white" font-family="ArialMT, Arial">1<tspan x="-4.337" y="124" letter-spacing="-0.074em">1</tspan><tspan x="4.337" y="124">1</tspan><tspan x="-5.005" y="248">21</tspan><tspan x="-5.005" y="372">31</tspan><tspan x="-5.005" y="496">41</tspan><tspan x="-5.005" y="620">51</tspan><tspan x="-5.005" y="744">61</tspan><tspan x="-5.005" y="868">71</tspan><tspan x="-5.005" y="992">81</tspan><tspan x="-5.005" y="1116">91</tspan><tspan x="-10.011" y="1240">101</tspan><tspan x="-8.675" y="1364" letter-spacing="-0.074em">11</tspan><tspan x="8.675" y="1364">1</tspan><tspan x="-10.011" y="1488">121</tspan><tspan x="-10.011" y="1612">131</tspan><tspan x="-10.011" y="1736">141</tspan><tspan x="-10.011" y="1860">151</tspan><tspan x="-10.011" y="1984">161</tspan><tspan x="-10.011" y="2108">171</tspan><tspan x="-10.011" y="2232">181</tspan><tspan x="-10.011" y="2356">191</tspan><tspan x="-10.011" y="2480">201</tspan><tspan x="-9.343" y="2604">2</tspan><tspan x="0.668" y="2604" letter-spacing="-0.074em">1</tspan><tspan x="9.343" y="2604">1</tspan><tspan x="-10.011" y="2728">221</tspan><tspan x="-10.011" y="2852">231</tspan><tspan x="-10.011" y="2976">241</tspan><tspan x="-10.011" y="3100">251</tspan><tspan x="-10.011" y="3224">261</tspan><tspan x="-10.011" y="3348">271</tspan><tspan x="-10.011" y="3472">281</tspan><tspan x="-10.011" y="3596">291</tspan></text></g><g id="Icons"><path d="M67.041,22.06a1,1,0,0,1-.883-.529c-.465-.872-.975-1.735-1.516-2.565a1,1,0,1,1,1.676-1.092c.572.879,1.112,1.793,1.6,2.715a1,1,0,0,1-.881,1.471Z"/><path d="M9.811,58.41a1,1,0,0,1-.8-.4A34.64,34.64,0,0,1,2,37,35.023,35.023,0,0,1,53.481,6.108a1,1,0,1,1-.943,1.764A33.022,33.022,0,0,0,4,37a32.652,32.652,0,0,0,6.609,19.808,1,1,0,0,1-.8,1.6Z"/><path d="M61.04,13.96a1,1,0,0,1-.707-.293c-.672-.672-1.351-1.293-2.075-1.9a1,1,0,0,1,1.284-1.534c.77.645,1.491,1.306,2.2,2.02a1,1,0,0,1-.707,1.707Z"/><path d="M37,72a34.661,34.661,0,0,1-21.1-7.083A1,1,0,0,1,17.1,63.323,32.681,32.681,0,0,0,37,70,33.033,33.033,0,0,0,68.875,28.42a1,1,0,1,1,1.93-.52A35.029,35.029,0,0,1,37,72Z"/><path d="M37,62A25.028,25.028,0,0,1,12,37a24.712,24.712,0,0,1,1.449-8.368,1,1,0,0,1,1.489-.5A3.751,3.751,0,1,0,18.8,21.706a1,1,0,0,1-.255-1.55A25,25,0,1,1,37,62ZM14.976,30.382A22.769,22.769,0,0,0,14,37a23.029,23.029,0,1,0,6.8-16.313,5.75,5.75,0,0,1-5.827,9.7Z"/><path d="M37,52A15,15,0,1,1,51.143,31.985a1,1,0,0,1-1.885.67,13,13,0,1,0,0,8.69,1,1,0,0,1,1.885.67A15.04,15.04,0,0,1,37,52Z"/><path d="M37,42.75A5.75,5.75,0,1,1,42.75,37,5.757,5.757,0,0,1,37,42.75Zm0-9.5A3.75,3.75,0,1,0,40.75,37,3.754,3.754,0,0,0,37,33.25Z"/><path d="M12.918,66.75A5.75,5.75,0,1,1,18.668,61,5.757,5.757,0,0,1,12.918,66.75Zm0-9.5A3.75,3.75,0,1,0,16.668,61,3.755,3.755,0,0,0,12.918,57.25Z"/><path d="M14.389,29.97a.99.99,0,0,1-.549-.165,5.752,5.752,0,0,1,5.923-9.85,1,1,0,0,1-.967,1.751,3.752,3.752,0,0,0-3.856,6.429,1,1,0,0,1-.551,1.835Z"/><path d="M51,42.75A5.75,5.75,0,1,1,56.75,37,5.757,5.757,0,0,1,51,42.75Zm0-9.5A3.75,3.75,0,1,0,54.75,37,3.754,3.754,0,0,0,51,33.25Z"/></g></svg>
