<svg height="128" viewBox="0 0 192 192" width="128" fill="#a88b2c" xmlns="http://www.w3.org/2000/svg"><g id="_05-portion" data-name="05-portion"><g id="Glyph"><path d="m120 68.671v-28.671h8v-16h-64v16h8v28.671a64 64 0 1 0 48 0zm-24 107.329a47.907 47.907 0 0 1 -34.343-81.4c11.566 3.937 22.612 10.881 34.343 14.4 14 4 29 4 42-3 .142-.085.279-.178.42-.264a47.841 47.841 0 0 1 -42.42 70.264z"/><circle cx="120" cy="136" r="8"/><circle cx="88" cy="152" r="8"/><circle cx="72" cy="128" r="8"/><circle cx="152" cy="40" r="8"/><circle cx="24" cy="64" r="8"/><circle cx="64" cy="8" r="8"/></g></g></svg>